<svg width="79" height="80" viewBox="0 0 79 80" fill="none" xmlns="http://www.w3.org/2000/svg">
<g filter="url(#filter0_d_75_2783)">
<rect x="12" y="8.5" width="55" height="55" rx="27.5" fill="#FF4D00"/>
<path d="M47 37.498H41V43.498H39V37.498H33V35.498H39V29.498H41V35.498H47V37.498Z" fill="white"/>
</g>
<path d="M43.7969 35.1406H40.3594V31.7031C40.3594 31.4752 40.2688 31.2566 40.1077 31.0955C39.9465 30.9343 39.7279 30.8438 39.5 30.8438C39.2721 30.8438 39.0535 30.9343 38.8923 31.0955C38.7312 31.2566 38.6406 31.4752 38.6406 31.7031V35.1406H35.2031C34.9752 35.1406 34.7566 35.2312 34.5955 35.3923C34.4343 35.5535 34.3438 35.7721 34.3438 36C34.3438 36.2279 34.4343 36.4465 34.5955 36.6077C34.7566 36.7688 34.9752 36.8594 35.2031 36.8594H38.6406V40.2969C38.6406 40.5248 38.7312 40.7434 38.8923 40.9045C39.0535 41.0657 39.2721 41.1562 39.5 41.1562C39.7279 41.1562 39.9465 41.0657 40.1077 40.9045C40.2688 40.7434 40.3594 40.5248 40.3594 40.2969V36.8594H43.7969C44.0248 36.8594 44.2434 36.7688 44.4045 36.6077C44.5657 36.4465 44.6562 36.2279 44.6562 36C44.6562 35.7721 44.5657 35.5535 44.4045 35.3923C44.2434 35.2312 44.0248 35.1406 43.7969 35.1406Z" fill="white"/>
<defs>
<filter id="filter0_d_75_2783" x="0" y="0.5" width="79" height="79" filterUnits="userSpaceOnUse" color-interpolation-filters="sRGB">
<feFlood flood-opacity="0" result="BackgroundImageFix"/>
<feColorMatrix in="SourceAlpha" type="matrix" values="0 0 0 0 0 0 0 0 0 0 0 0 0 0 0 0 0 0 127 0" result="hardAlpha"/>
<feOffset dy="4"/>
<feGaussianBlur stdDeviation="6"/>
<feColorMatrix type="matrix" values="0 0 0 0 0.380392 0 0 0 0 0.243137 0 0 0 0 0.917647 0 0 0 0.5 0"/>
<feBlend mode="normal" in2="BackgroundImageFix" result="effect1_dropShadow_75_2783"/>
<feBlend mode="normal" in="SourceGraphic" in2="effect1_dropShadow_75_2783" result="shape"/>
</filter>
</defs>
</svg>
