<svg width="24" height="25" viewBox="0 0 24 25" fill="none" xmlns="http://www.w3.org/2000/svg">
<path d="M12.0001 22.5001C10.7501 22.5001 9.57943 22.2628 8.4881 21.7881C7.39676 21.3134 6.44676 20.6718 5.6381 19.8631C4.82943 19.0544 4.18776 18.1044 3.7131 17.0131C3.23843 15.9218 3.00076 14.7508 3.0001 13.5001C2.99943 12.2494 3.2371 11.0788 3.7131 9.9881C4.1891 8.89743 4.83043 7.94743 5.6371 7.1381C6.44376 6.32876 7.39376 5.6871 8.4871 5.2131C9.58043 4.7391 10.7514 4.50143 12.0001 4.5001C13.2488 4.49876 14.4198 4.73643 15.5131 5.2131C16.6064 5.68976 17.5564 6.33143 18.3631 7.1381C19.1698 7.94476 19.8114 8.89476 20.2881 9.9881C20.7648 11.0814 21.0021 12.2521 21.0001 13.5001C20.9981 14.7481 20.7608 15.9191 20.2881 17.0131C19.8154 18.1071 19.1738 19.0571 18.3631 19.8631C17.5524 20.6691 16.6024 21.3108 15.5131 21.7881C14.4238 22.2654 13.2528 22.5028 12.0001 22.5001ZM14.8001 17.7001L16.2001 16.3001L13.0001 13.1001V8.5001H11.0001V13.9001L14.8001 17.7001ZM5.6001 2.8501L7.0001 4.2501L2.7501 8.5001L1.3501 7.1001L5.6001 2.8501ZM18.4001 2.8501L22.6501 7.1001L21.2501 8.5001L17.0001 4.2501L18.4001 2.8501Z" fill="#FF7235"/>
</svg>
