<svg width="28" height="28" viewBox="0 0 28 28" fill="none" xmlns="http://www.w3.org/2000/svg">
<path d="M14 24.4999C12.7058 24.4999 11.4933 24.2564 10.3624 23.7695C9.23149 23.2827 8.24293 22.6161 7.39671 21.7699C6.55049 20.9237 5.88393 19.9351 5.39704 18.8042C4.91015 17.6733 4.66671 16.4608 4.66671 15.1665C4.66671 13.8723 4.91015 12.6598 5.39704 11.5289C5.88393 10.398 6.55049 9.40944 7.39671 8.56321C8.24293 7.71699 9.23149 7.05044 10.3624 6.56355C11.4933 6.07666 12.7058 5.83321 14 5.83321C15.2943 5.83321 16.5068 6.07666 17.6377 6.56355C18.7686 7.05044 19.7572 7.71699 20.6034 8.56321C21.4496 9.40944 22.1162 10.398 22.603 11.5289C23.0899 12.6598 23.3334 13.8723 23.3334 15.1665C23.3334 16.4608 23.0899 17.6733 22.603 18.8042C22.1162 19.9351 21.4496 20.924 20.6034 21.771C19.7572 22.618 18.7686 23.2842 17.6377 23.7695C16.5068 24.2549 15.2943 24.4983 14 24.4999ZM17.6704 19.6629L18.4964 18.8369L14.5834 14.9239V9.33321H13.4167V15.4092L17.6704 19.6629ZM6.89271 3.99805L7.71754 4.82288L3.65754 8.88405L2.83154 8.05921L6.89271 3.99805ZM21.1074 3.99805L25.1685 8.05805L24.3437 8.88521L20.2825 4.82405L21.1074 3.99805ZM14 23.3332C16.2603 23.3332 18.1864 22.5372 19.7785 20.945C21.3707 19.3529 22.1667 17.4268 22.1667 15.1665C22.1667 12.9063 21.3707 10.9802 19.7785 9.38805C18.1864 7.79594 16.2603 6.99988 14 6.99988C11.7398 6.99988 9.81365 7.79594 8.22154 9.38805C6.62943 10.9802 5.83338 12.9063 5.83338 15.1665C5.83338 17.4268 6.62943 19.3529 8.22154 20.945C9.81365 22.5372 11.7398 23.3332 14 23.3332Z" fill="black"/>
</svg>
