<svg width="24" height="30" viewBox="0 0 24 30" fill="none" xmlns="http://www.w3.org/2000/svg">
<path d="M20.0441 16.1592C20.0855 20.6197 23.9571 22.104 24 22.1229C23.9673 22.2276 23.3814 24.2383 21.9602 26.3151C20.7317 28.1107 19.4567 29.8997 17.4482 29.9367C15.4746 29.9731 14.8399 28.7664 12.5836 28.7664C10.3279 28.7664 9.62277 29.8997 7.75454 29.9731C5.81578 30.0464 4.33944 28.0314 3.10073 26.2425C0.569559 22.583 -1.36478 15.9018 1.23255 11.3919C2.52284 9.15227 4.8287 7.73403 7.3315 7.69767C9.2353 7.66135 11.0323 8.97849 12.1961 8.97849C13.3592 8.97849 15.5429 7.39452 17.8385 7.62714C18.7996 7.66714 21.4972 8.01535 23.2294 10.5509C23.0899 10.6374 20.0106 12.43 20.0441 16.1592V16.1592ZM16.3349 5.20613C17.3642 3.9602 18.057 2.22576 17.868 0.5C16.3843 0.55963 14.5903 1.48867 13.5261 2.73391C12.5724 3.83663 11.7371 5.6016 11.9625 7.2932C13.6162 7.42114 15.3056 6.45285 16.3349 5.20613" fill="black"/>
</svg>
