<svg width="14" height="12" viewBox="0 0 14 12" fill="none" xmlns="http://www.w3.org/2000/svg">
<path fill-rule="evenodd" clip-rule="evenodd" d="M4.2 0.666667C4.2 0.298667 4.4891 0 4.8461 0H9.1539C9.5109 0 9.8 0.298667 9.8 0.666667C9.8 1.03467 9.5109 1.33333 9.1539 1.33333H4.8461C4.4891 1.33333 4.2 1.03467 4.2 0.666667ZM5.4446 12H8.5554C10.7401 12 11.8328 12 12.6175 11.5187C12.9551 11.3119 13.2467 11.044 13.4757 10.73C14 10.01 14 9.00667 14 7C14 4.99333 14 3.99067 13.475 3.27C13.2463 2.95608 12.9549 2.6881 12.6175 2.48133C11.8328 2 10.7401 2 8.5554 2H5.4446C3.2599 2 2.1672 2 1.3825 2.48133C1.04512 2.68811 0.753749 2.95609 0.525 3.27C0 3.99 0 4.99333 0 6.99867V7C0 9.00667 4.17233e-08 10.0093 0.5243 10.73C0.7511 11.042 1.0423 11.31 1.3825 11.5187C2.1672 12 3.2599 12 5.4446 12ZM4.0831 7C4.0831 5.52 5.3893 4.32133 7 4.32133C8.6107 4.32133 9.9169 5.52067 9.9169 7C9.9169 8.47933 8.61 9.67867 7 9.67867C5.3893 9.67867 4.0831 8.47867 4.0831 7ZM5.25 7C5.25 6.112 6.034 5.39333 7 5.39333C7.966 5.39333 8.75 6.11267 8.75 7C8.75 7.88733 7.966 8.60667 7 8.60667C6.034 8.60667 5.25 7.88733 5.25 7ZM11.2777 4.32133C10.9557 4.32133 10.6946 4.56133 10.6946 4.85733C10.6946 5.15267 10.9557 5.39267 11.2777 5.39267H11.6669C11.9889 5.39267 12.25 5.15267 12.25 4.85733C12.25 4.56133 11.9889 4.32133 11.6669 4.32133H11.2777Z" fill="#242760" fill-opacity="0.81"/>
</svg>
