<svg width="24" height="26" viewBox="0 0 24 26" fill="none" xmlns="http://www.w3.org/2000/svg">
<g clip-path="url(#clip0_75_5044)">
<path d="M23.9885 13.011C23.9885 12.0047 23.9069 11.2703 23.7301 10.5088H12.239V15.0508H18.984C18.8481 16.1795 18.1138 17.8794 16.4819 19.0217L16.459 19.1737L20.0923 21.9884L20.344 22.0135C22.6558 19.8784 23.9885 16.7371 23.9885 13.011Z" fill="#4285F4"/>
<path d="M12.239 24.9781C15.5435 24.9781 18.3177 23.8901 20.344 22.0135L16.4819 19.0217C15.4484 19.7425 14.0612 20.2456 12.239 20.2456C9.00248 20.2456 6.25551 18.1106 5.27629 15.1597L5.13276 15.1719L1.35483 18.0956L1.30542 18.233C3.31804 22.231 7.45214 24.9781 12.239 24.9781Z" fill="#34A853"/>
<path d="M5.27634 15.1597C5.01797 14.3982 4.86844 13.5822 4.86844 12.7391C4.86844 11.8959 5.01797 11.08 5.26275 10.3185L5.25591 10.1563L1.43062 7.18555L1.30547 7.24508C0.475969 8.90417 0 10.7673 0 12.7391C0 14.711 0.475969 16.574 1.30547 18.233L5.27634 15.1597Z" fill="#FBBC05"/>
<path d="M12.239 5.23241C14.5372 5.23241 16.0874 6.22512 16.9714 7.05472L20.4255 3.68216C18.3042 1.71031 15.5435 0.5 12.239 0.5C7.45214 0.5 3.31804 3.24697 1.30542 7.24503L5.2627 10.3184C6.25551 7.36747 9.00248 5.23241 12.239 5.23241Z" fill="#EB4335"/>
</g>
<defs>
<clipPath id="clip0_75_5044">
<rect width="24" height="24.5625" fill="white" transform="translate(0 0.5)"/>
</clipPath>
</defs>
</svg>
