<svg width="24" height="25" viewBox="0 0 24 25" fill="none" xmlns="http://www.w3.org/2000/svg">
<path d="M6.66667 20C8.13943 20 9.33333 18.8807 9.33333 17.5C9.33333 16.1193 8.13943 15 6.66667 15C5.19391 15 4 16.1193 4 17.5C4 18.8807 5.19391 20 6.66667 20Z" fill="#FF7235" fill-opacity="0.89" stroke="#FF7235" stroke-opacity="0.89" stroke-width="2" stroke-linecap="round" stroke-linejoin="round"/>
<path d="M17.3332 19.1667C18.8059 19.1667 19.9998 18.0475 19.9998 16.6667C19.9998 15.286 18.8059 14.1667 17.3332 14.1667C15.8604 14.1667 14.6665 15.286 14.6665 16.6667C14.6665 18.0475 15.8604 19.1667 17.3332 19.1667Z" fill="#FF7235" fill-opacity="0.89" stroke="#FF7235" stroke-opacity="0.89" stroke-width="2" stroke-linecap="round" stroke-linejoin="round"/>
<path d="M20.0002 5L9.3335 7.5V10.8333L20.0002 8.33333V5Z" fill="#FF7235" fill-opacity="0.89"/>
<path d="M9.3335 17.5V10.8333M9.3335 10.8333V7.5L20.0002 5V8.33333M9.3335 10.8333L20.0002 8.33333M20.0002 16.6667V8.33333" stroke="#FF7235" stroke-opacity="0.89" stroke-width="2" stroke-linecap="round" stroke-linejoin="round"/>
</svg>
