<svg width="24" height="25" viewBox="0 0 24 25" fill="none" xmlns="http://www.w3.org/2000/svg">
<path d="M8 6.6L19 5.5V16.5C19 17.2956 18.6839 18.0587 18.1213 18.6213C17.5587 19.1839 16.7956 19.5 16 19.5C15.2044 19.5 14.4413 19.1839 13.8787 18.6213C13.3161 18.0587 13 17.2956 13 16.5C13 15.7044 13.3161 14.9413 13.8787 14.3787C14.4413 13.8161 15.2044 13.5 16 13.5C16.77 13.5 17.47 13.79 18 14.26V9.54L9 10.54V17.5C9 18.2956 8.68393 19.0587 8.12132 19.6213C7.55871 20.1839 6.79565 20.5 6 20.5C5.20435 20.5 4.44129 20.1839 3.87868 19.6213C3.31607 19.0587 3 18.2956 3 17.5C3 16.7044 3.31607 15.9413 3.87868 15.3787C4.44129 14.8161 5.20435 14.5 6 14.5C6.77 14.5 7.47 14.79 8 15.26V6.6ZM9 7.5V9.53L18 8.54V6.59L9 7.5ZM8 17.5C8 16.9696 7.78929 16.4609 7.41421 16.0858C7.03914 15.7107 6.53043 15.5 6 15.5C5.46957 15.5 4.96086 15.7107 4.58579 16.0858C4.21071 16.4609 4 16.9696 4 17.5C4 18.0304 4.21071 18.5391 4.58579 18.9142C4.96086 19.2893 5.46957 19.5 6 19.5C6.53043 19.5 7.03914 19.2893 7.41421 18.9142C7.78929 18.5391 8 18.0304 8 17.5ZM18 16.5C18 15.9696 17.7893 15.4609 17.4142 15.0858C17.0391 14.7107 16.5304 14.5 16 14.5C15.4696 14.5 14.9609 14.7107 14.5858 15.0858C14.2107 15.4609 14 15.9696 14 16.5C14 17.0304 14.2107 17.5391 14.5858 17.9142C14.9609 18.2893 15.4696 18.5 16 18.5C16.5304 18.5 17.0391 18.2893 17.4142 17.9142C17.7893 17.5391 18 17.0304 18 16.5Z" fill="black"/>
</svg>
