<svg width="24" height="25" viewBox="0 0 24 25" fill="none" xmlns="http://www.w3.org/2000/svg">
<g clip-path="url(#clip0_75_2817)">
<path d="M7.42407 21.5C7.81173 22.3914 8.4513 23.1502 9.26423 23.6831C10.0771 24.216 11.028 24.4999 12.0001 24.4999C12.9721 24.4999 13.923 24.216 14.7359 23.6831C15.5488 23.1502 16.1884 22.3914 16.5761 21.5H7.42407Z" fill="#322D2D"/>
<path d="M22.3921 13.0491L20.6561 7.32605C20.1001 5.3244 18.8914 3.56583 17.2219 2.32955C15.5524 1.09328 13.5177 0.45017 11.441 0.50233C9.3642 0.55449 7.36438 1.29893 5.75902 2.61746C4.15367 3.93598 3.03479 5.75301 2.58005 7.78005L1.23205 13.3171C1.05289 14.0528 1.04318 14.8196 1.20366 15.5597C1.36415 16.2998 1.69063 16.9937 2.15847 17.5891C2.62632 18.1846 3.2233 18.666 3.90437 18.997C4.58544 19.328 5.3328 19.5 6.09005 19.5001H17.6071C18.3878 19.5001 19.1577 19.3173 19.8551 18.9663C20.5525 18.6153 21.158 18.1059 21.6231 17.4788C22.0882 16.8517 22.4 16.1245 22.5335 15.3552C22.6671 14.586 22.6186 13.7962 22.3921 13.0491Z" fill="#322D2D"/>
</g>
<defs>
<clipPath id="clip0_75_2817">
<rect width="24" height="24" fill="white" transform="translate(0 0.5)"/>
</clipPath>
</defs>
</svg>
