<svg width="10" height="12" viewBox="0 0 10 12" fill="none" xmlns="http://www.w3.org/2000/svg">
<path d="M1.59091 0C1.16897 0 0.76432 0.163889 0.465967 0.455612C0.167613 0.747335 0 1.143 0 1.55556V10.4444C0 11.3031 0.712727 12 1.59091 12H2.5C2.92194 12 3.32659 11.8361 3.62494 11.5444C3.9233 11.2527 4.09091 10.857 4.09091 10.4444V1.55556C4.09091 1.143 3.9233 0.747335 3.62494 0.455612C3.32659 0.163889 2.92194 0 2.5 0H1.59091ZM7.5 0C7.07806 0 6.67341 0.163889 6.37506 0.455612C6.0767 0.747335 5.90909 1.143 5.90909 1.55556V10.4444C5.90909 11.3031 6.62182 12 7.5 12H8.40909C8.83103 12 9.23568 11.8361 9.53403 11.5444C9.83239 11.2527 10 10.857 10 10.4444V1.55556C10 1.143 9.83239 0.747335 9.53403 0.455612C9.23568 0.163889 8.83103 0 8.40909 0H7.5Z" fill="#FF7235" fill-opacity="0.89"/>
</svg>
