<svg width="9" height="12" viewBox="0 0 9 12" fill="none" xmlns="http://www.w3.org/2000/svg">
<path d="M4.50257 1.11819L4.446 1.08263C3.80486 0.67812 3.24086 0.321616 2.75743 0.14203C2.49093 0.0357958 2.20603 -0.0117388 1.92086 0.00245126C1.62066 0.0262189 1.33374 0.140564 1.09543 0.331395C0.599143 0.717238 0.384857 1.28533 0.267428 1.91388C0.153428 2.52288 0.109714 3.3159 0.0557143 4.28139L0.0531427 4.33118C0.0205713 4.90906 0 5.48071 0 5.99902C0 6.51733 0.0205713 7.08987 0.0531427 7.66774L0.0557143 7.71664C0.109714 8.68214 0.153428 9.47516 0.267428 10.0833C0.384857 10.7127 0.599143 11.2799 1.09543 11.6666C1.34057 11.8578 1.61571 11.9716 1.92086 11.9956C2.214 12.0178 2.49514 11.9538 2.75743 11.856C3.24086 11.6764 3.80486 11.3199 4.446 10.9163L4.50257 10.8807C4.86771 10.6496 5.226 10.4122 5.54571 10.1784C5.93726 9.88948 6.31892 9.58643 6.69 9.26979L6.73286 9.23334C7.38771 8.67947 7.94314 8.20917 8.32714 7.74687C8.74543 7.24012 9 6.69602 9 5.99902C9 5.30201 8.74543 4.75703 8.32629 4.25117C7.94314 3.78887 7.38771 3.31768 6.73371 2.76469L6.69086 2.72824C6.30171 2.3993 5.91086 2.08458 5.54571 1.81965C5.20521 1.57421 4.85732 1.33998 4.50257 1.11731" fill="#FF7235"/>
</svg>
