<svg width="17" height="17" viewBox="0 0 17 17" fill="none" xmlns="http://www.w3.org/2000/svg">
<path d="M3.49992 16C4.88059 16 5.99984 14.8807 5.99984 13.5C5.99984 12.1193 4.88059 11 3.49992 11C2.11925 11 1 12.1193 1 13.5C1 14.8807 2.11925 16 3.49992 16Z" fill="white" stroke="white" stroke-width="2" stroke-linecap="round" stroke-linejoin="round"/>
<path d="M13.4997 15.1666C14.8803 15.1666 15.9996 14.0473 15.9996 12.6666C15.9996 11.2859 14.8803 10.1666 13.4997 10.1666C12.119 10.1666 10.9998 11.2859 10.9998 12.6666C10.9998 14.0473 12.119 15.1666 13.4997 15.1666Z" fill="white" stroke="white" stroke-width="2" stroke-linecap="round" stroke-linejoin="round"/>
<path d="M15.9994 1L5.99976 3.49999V6.83332L15.9994 4.33333V1Z" fill="white"/>
<path d="M5.99976 13.5V6.83332M5.99976 6.83332V3.49999L15.9994 1V4.33333M5.99976 6.83332L15.9994 4.33333M15.9994 12.6666V4.33333" stroke="white" stroke-width="2" stroke-linecap="round" stroke-linejoin="round"/>
</svg>
