<svg width="24" height="25" viewBox="0 0 24 25" fill="none" xmlns="http://www.w3.org/2000/svg">
<g clip-path="url(#clip0_75_3189)">
<path d="M23 11.4991H21V9.49913C21 8.94685 20.5523 8.49915 20 8.49915C19.4477 8.49915 19 8.94685 19 9.49913V11.4991H17C16.4477 11.4991 16 11.9468 16 12.4991C16 13.0514 16.4477 13.4991 17 13.4991H19V15.4991C19 16.0514 19.4477 16.4991 20 16.4991C20.5523 16.4991 21 16.0514 21 15.4991V13.4991H23C23.5523 13.4991 24 13.0514 24 12.4991C24 11.9468 23.5523 11.4991 23 11.4991Z" fill="black"/>
<path d="M9 12.5C12.3137 12.5 15 9.81371 15 6.5C15 3.18629 12.3137 0.5 9 0.5C5.68629 0.5 3 3.18629 3 6.5C3 9.81371 5.68629 12.5 9 12.5Z" fill="black"/>
<path d="M9 14.499C4.03172 14.5046 0.00553125 18.5307 0 23.499C0 24.0513 0.447703 24.499 0.999984 24.499H17C17.5522 24.499 18 24.0513 18 23.499C17.9945 18.5307 13.9683 14.5045 9 14.499Z" fill="black"/>
</g>
<defs>
<clipPath id="clip0_75_3189">
<rect width="24" height="24" fill="white" transform="translate(0 0.5)"/>
</clipPath>
</defs>
</svg>
